<?xml version="1.0" encoding="UTF-8" standalone="no"?>
<!-- Created with Inkscape (http://www.inkscape.org/) -->

<svg
   xmlns:dc="http://purl.org/dc/elements/1.1/"
   xmlns:cc="http://creativecommons.org/ns#"
   xmlns:rdf="http://www.w3.org/1999/02/22-rdf-syntax-ns#"
   xmlns:svg="http://www.w3.org/2000/svg"
   xmlns="http://www.w3.org/2000/svg"
   xmlns:sodipodi="http://sodipodi.sourceforge.net/DTD/sodipodi-0.dtd"
   xmlns:inkscape="http://www.inkscape.org/namespaces/inkscape"
   width="558.66553"
   height="535.64026"
   id="svg2"
   version="1.1"
   inkscape:version="0.48.4 r9939"
   sodipodi:docname="index.svg">
  <defs
     id="defs4" />
  <sodipodi:namedview
     id="base"
     pagecolor="#ffffff"
     bordercolor="#666666"
     borderopacity="1.0"
     inkscape:pageopacity="0.0"
     inkscape:pageshadow="2"
     inkscape:zoom="2.8284271"
     inkscape:cx="511.52049"
     inkscape:cy="100.46773"
     inkscape:document-units="px"
     inkscape:current-layer="g3083"
     showgrid="false"
     fit-margin-top="20"
     fit-margin-left="10"
     fit-margin-right="10"
     fit-margin-bottom="10"
     inkscape:window-width="1440"
     inkscape:window-height="876"
     inkscape:window-x="0"
     inkscape:window-y="24"
     inkscape:window-maximized="1"
     showguides="true"
     inkscape:snap-global="false">
    <inkscape:grid
       type="xygrid"
       id="grid3043"
       empspacing="5"
       visible="true"
       enabled="true"
       snapvisiblegridlinesonly="true"
       originx="0.0742px"
       originy="181.63733px" />
  </sodipodi:namedview>
  <metadata
     id="metadata7">
    <rdf:RDF>
      <cc:Work
         rdf:about="">
        <dc:format>image/svg+xml</dc:format>
        <dc:type
           rdf:resource="http://purl.org/dc/dcmitype/StillImage" />
        <dc:title></dc:title>
      </cc:Work>
    </rdf:RDF>
  </metadata>
  <g
     inkscape:label="Layer 1"
     inkscape:groupmode="layer"
     id="layer1"
     transform="translate(-116.90588,-550.33307)">
    <g
       id="minutes"
       transform="translate(0.29568719,-1.6419117)">
      <path
         id="path856-9"
         style="fill:#a7a5a6;fill-opacity:1;fill-rule:evenodd;stroke:none"
         d="m 395.98008,749.48903 c -35.835,0 -64.8975,29.0625 -64.8975,64.895 0,35.835 29.0625,64.89747 64.8975,64.89747 35.835,0 64.8975,-29.06247 64.8975,-64.89747 0,-35.8325 -29.0625,-64.895 -64.8975,-64.895 m 0,-6.795 c 39.5875,0 71.6925,32.105 71.6925,71.69 0,39.59 -32.105,71.69497 -71.6925,71.69497 -39.5875,0 -71.6925,-32.10497 -71.6925,-71.69497 0,-39.585 32.105,-71.69 71.6925,-71.69"
         inkscape:connector-curvature="0" />
      <path
         sodipodi:end="4"
         sodipodi:start="0"
         transform="matrix(2.57277,0,0,2.57277,339.2875,638.88969)"
         d="m 53.749043,68.213181 c 0,17.51484 -14.198584,31.713424 -31.713425,31.713424 -17.514841,0 -31.7134249,-14.198584 -31.7134249,-31.713424 0,-9.216264 4.0092557,-17.976647 10.984147,-24.000799 L 22.035618,68.213181 z"
         sodipodi:ry="31.713425"
         sodipodi:rx="31.713425"
         sodipodi:cy="68.213181"
         sodipodi:cx="22.035618"
         id="path3008-1"
         style="fill:#58b4f2;fill-opacity:1;stroke:none"
         sodipodi:type="arc"
         class="progArc" />
      <path
         transform="matrix(2.5191742,0,0,2.5191742,423.9234,675.74007)"
         d="m 14.144485,55.036472 c 0,13.937866 -11.298873,25.236739 -25.236739,25.236739 -13.937865,0 -25.236738,-11.298873 -25.236738,-25.236739 0,-13.937865 11.298873,-25.236738 25.236738,-25.236738 13.937866,0 25.236739,11.298873 25.236739,25.236738 z"
         sodipodi:ry="25.236738"
         sodipodi:rx="25.236738"
         sodipodi:cy="55.036472"
         sodipodi:cx="-11.092254"
         id="path3782-0"
         style="fill:#ffffff;fill-opacity:1;stroke:none"
         sodipodi:type="arc" />
      <path
         id="path892-8"
         style="fill:#424f53;fill-opacity:1;fill-rule:nonzero;stroke:none"
         d="m 409.30758,863.34989 -4.065,0 0,-9.8925 1.49,0 0,8.4075 2.575,0 0,1.485 z m -8.015,-7.625 0.555,3.9 -1.1075,0 0.5525,-3.9 z m -0.7825,5.3525 1.5575,0 0.35,2.2725 1.5675,0 -1.655,-9.8925 -2.0525,0 -1.6825,9.8925 1.555,0 0.36,-2.2725 z m -4.8275,-6.1275 -1.59,0 0,-1.4925 4.6575,0 0,1.4925 -1.5775,0 0,8.4 -1.49,0 0,-8.4 z m -4.17,0.7175 c 0,-0.2375 -0.0824,-0.4375 -0.25,-0.605 -0.165,-0.165 -0.3675,-0.25 -0.605,-0.25 -0.2375,0 -0.44,0.085 -0.6075,0.25 -0.17,0.1676 -0.255,0.3675 -0.255,0.605 l 0,5.4175 c 0,0.235 0.085,0.4375 0.255,0.6025 0.1676,0.165 0.37,0.25 0.6075,0.25 0.2375,0 0.44,-0.085 0.605,-0.25 0.1676,-0.165 0.25,-0.3675 0.25,-0.6025 l 0,-5.4175 z m -0.815,-2.3375 c 0.6575,0 1.2175,0.2325 1.68,0.695 0.4575,0.4625 0.69,1.02 0.69,1.6725 l 0,5.4025 c 0,0.6575 -0.2325,1.2175 -0.695,1.6775 -0.465,0.4625 -1.0225,0.69 -1.675,0.69 -0.6575,0 -1.2175,-0.23 -1.6725,-0.6925 -0.46,-0.465 -0.69,-1.0225 -0.69,-1.675 l 0,-5.4025 c 0,-0.6575 0.2325,-1.2175 0.6975,-1.675 0.4625,-0.4625 1.0175,-0.6925 1.665,-0.6925 m -6.4575,1.62 -1.5875,0 0,-1.4925 4.6575,0 0,1.4925 -1.58,0 0,8.4 -1.49,0 0,-8.4 z"
         inkscape:connector-curvature="0" />
      <text
         sodipodi:linespacing="125%"
         id="text3786-7"
         y="816.34399"
         x="395.49667"
         style="font-size:36px;font-style:normal;font-weight:normal;text-align:center;line-height:125%;letter-spacing:0px;word-spacing:0px;text-anchor:middle;fill:#58b4f2;fill-opacity:1;stroke:none;font-family:Sans"
         xml:space="preserve"
         class="current"><tspan
           style="font-size:36px;text-align:center;text-anchor:middle;fill:#58b4f2;fill-opacity:1"
           y="816.34399"
           x="395.49667"
           id="tspan3788-8"
           sodipodi:role="line">32s</tspan></text>
      <text
         sodipodi:linespacing="125%"
         id="text3790-4"
         y="846.12183"
         x="395.7457"
         style="font-size:80px;font-style:normal;font-weight:normal;line-height:125%;letter-spacing:0px;word-spacing:0px;fill:#424f53;fill-opacity:1;stroke:none;font-family:Sans"
         xml:space="preserve"
         class="total"><tspan
           style="font-size:16px;font-weight:bold;text-align:center;text-anchor:middle;fill:#424f53;fill-opacity:1;-inkscape-font-specification:Sans Bold"
           y="846.12183"
           x="395.7457"
           id="tspan3792-2"
           sodipodi:role="line">5900s</tspan></text>
    </g>
    <g
       id="seconds"
       transform="translate(188,-1.6419117)">
      <path
         id="path856-9-1"
         style="fill:#a7a5a6;fill-opacity:1;fill-rule:evenodd;stroke:none"
         d="m 395.98008,749.48903 c -35.835,0 -64.8975,29.0625 -64.8975,64.895 0,35.835 29.0625,64.89747 64.8975,64.89747 35.835,0 64.8975,-29.06247 64.8975,-64.89747 0,-35.8325 -29.0625,-64.895 -64.8975,-64.895 m 0,-6.795 c 39.5875,0 71.6925,32.105 71.6925,71.69 0,39.59 -32.105,71.69497 -71.6925,71.69497 -39.5875,0 -71.6925,-32.10497 -71.6925,-71.69497 0,-39.585 32.105,-71.69 71.6925,-71.69"
         inkscape:connector-curvature="0" />
      <path
         sodipodi:end="4"
         sodipodi:start="0"
         transform="matrix(2.57277,0,0,2.57277,339.2875,638.88969)"
         d="m 53.749043,68.213181 c 0,17.51484 -14.198584,31.713424 -31.713425,31.713424 -17.514841,0 -31.7134249,-14.198584 -31.7134249,-31.713424 0,-9.216264 4.0092557,-17.976647 10.984147,-24.000799 L 22.035618,68.213181 z"
         sodipodi:ry="31.713425"
         sodipodi:rx="31.713425"
         sodipodi:cy="68.213181"
         sodipodi:cx="22.035618"
         id="path3008-1-1"
         style="fill:#58b4f2;fill-opacity:1;stroke:none"
         sodipodi:type="arc"
         class="progArc" />
      <path
         transform="matrix(2.5191742,0,0,2.5191742,423.9234,675.74007)"
         d="m 14.144485,55.036472 c 0,13.937866 -11.298873,25.236739 -25.236739,25.236739 -13.937865,0 -25.236738,-11.298873 -25.236738,-25.236739 0,-13.937865 11.298873,-25.236738 25.236738,-25.236738 13.937866,0 25.236739,11.298873 25.236739,25.236738 z"
         sodipodi:ry="25.236738"
         sodipodi:rx="25.236738"
         sodipodi:cy="55.036472"
         sodipodi:cx="-11.092254"
         id="path3782-0-8"
         style="fill:#ffffff;fill-opacity:1;stroke:none"
         sodipodi:type="arc" />
      <path
         id="path892-8-3"
         style="fill:#424f53;fill-opacity:1;fill-rule:nonzero;stroke:none"
         d="m 409.30758,863.34989 -4.065,0 0,-9.8925 1.49,0 0,8.4075 2.575,0 0,1.485 z m -8.015,-7.625 0.555,3.9 -1.1075,0 0.5525,-3.9 z m -0.7825,5.3525 1.5575,0 0.35,2.2725 1.5675,0 -1.655,-9.8925 -2.0525,0 -1.6825,9.8925 1.555,0 0.36,-2.2725 z m -4.8275,-6.1275 -1.59,0 0,-1.4925 4.6575,0 0,1.4925 -1.5775,0 0,8.4 -1.49,0 0,-8.4 z m -4.17,0.7175 c 0,-0.2375 -0.0824,-0.4375 -0.25,-0.605 -0.165,-0.165 -0.3675,-0.25 -0.605,-0.25 -0.2375,0 -0.44,0.085 -0.6075,0.25 -0.17,0.1676 -0.255,0.3675 -0.255,0.605 l 0,5.4175 c 0,0.235 0.085,0.4375 0.255,0.6025 0.1676,0.165 0.37,0.25 0.6075,0.25 0.2375,0 0.44,-0.085 0.605,-0.25 0.1676,-0.165 0.25,-0.3675 0.25,-0.6025 l 0,-5.4175 z m -0.815,-2.3375 c 0.6575,0 1.2175,0.2325 1.68,0.695 0.4575,0.4625 0.69,1.02 0.69,1.6725 l 0,5.4025 c 0,0.6575 -0.2325,1.2175 -0.695,1.6775 -0.465,0.4625 -1.0225,0.69 -1.675,0.69 -0.6575,0 -1.2175,-0.23 -1.6725,-0.6925 -0.46,-0.465 -0.69,-1.0225 -0.69,-1.675 l 0,-5.4025 c 0,-0.6575 0.2325,-1.2175 0.6975,-1.675 0.4625,-0.4625 1.0175,-0.6925 1.665,-0.6925 m -6.4575,1.62 -1.5875,0 0,-1.4925 4.6575,0 0,1.4925 -1.58,0 0,8.4 -1.49,0 0,-8.4 z"
         inkscape:connector-curvature="0" />
      <text
         sodipodi:linespacing="125%"
         id="text3786-7-1"
         y="816.34399"
         x="395.49667"
         style="font-size:36px;font-style:normal;font-weight:normal;text-align:center;line-height:125%;letter-spacing:0px;word-spacing:0px;text-anchor:middle;fill:#58b4f2;fill-opacity:1;stroke:none;font-family:Sans"
         xml:space="preserve"
         class="current"><tspan
           style="font-size:36px;text-align:center;text-anchor:middle;fill:#58b4f2;fill-opacity:1"
           y="816.34399"
           x="395.49667"
           id="tspan3788-8-0"
           sodipodi:role="line">32s</tspan></text>
      <text
         sodipodi:linespacing="125%"
         id="text3790-4-9"
         y="846.12183"
         x="395.7457"
         style="font-size:80px;font-style:normal;font-weight:normal;text-align:center;line-height:125%;letter-spacing:0px;word-spacing:0px;text-anchor:middle;fill:#424f53;fill-opacity:1;stroke:none;font-family:Sans"
         xml:space="preserve"
         class="total"><tspan
           style="font-size:16px;font-weight:bold;text-align:center;text-anchor:middle;fill:#424f53;fill-opacity:1;-inkscape-font-specification:Sans Bold"
           y="846.12183"
           x="395.7457"
           id="tspan3792-2-1"
           sodipodi:role="line">5900s</tspan></text>
      <flowRoot
         xml:space="preserve"
         id="flowRoot3111"
         style="font-size:40px;font-style:normal;font-weight:normal;line-height:125%;letter-spacing:0px;word-spacing:0px;fill:#000000;fill-opacity:1;stroke:none;font-family:Sans"><flowRegion
           id="flowRegion3113"><rect
             id="rect3115"
             width="259"
             height="123"
             x="101"
             y="28.39064" /></flowRegion><flowPara
           id="flowPara3117" /></flowRoot>    </g>
    <text
       xml:space="preserve"
       style="font-size:40px;font-style:normal;font-weight:normal;text-align:center;line-height:125%;letter-spacing:0px;word-spacing:0px;text-anchor:middle;fill:#58b4f2;fill-opacity:1;stroke:none;font-family:Sans"
       x="396.28552"
       y="701.33594"
       id="days"
       sodipodi:linespacing="125%"><tspan
         sodipodi:role="line"
         id="tspan3101"
         x="396.28552"
         y="701.33594">45 days</tspan></text>
    <text
       xml:space="preserve"
       style="font-size:40px;font-style:normal;font-weight:normal;text-align:center;line-height:125%;letter-spacing:0px;word-spacing:0px;text-anchor:middle;fill:#8a9294;fill-opacity:1;stroke:none;font-family:Sans"
       x="396.71118"
       y="600.72369"
       id="text3119"
       sodipodi:linespacing="125%"><tspan
         sodipodi:role="line"
         id="tspan3121"
         x="396.71118"
         y="600.72369">Theresa lands in Beijing</tspan><tspan
         sodipodi:role="line"
         x="396.71118"
         y="650.72369"
         id="tspan3123">in</tspan></text>
    <g
       id="hours"
       transform="translate(-187.40865,-1.6419117)">
      <path
         id="path856-9-9"
         style="fill:#a7a5a6;fill-opacity:1;fill-rule:evenodd;stroke:none"
         d="m 395.98008,749.48903 c -35.835,0 -64.8975,29.0625 -64.8975,64.895 0,35.835 29.0625,64.89747 64.8975,64.89747 35.835,0 64.8975,-29.06247 64.8975,-64.89747 0,-35.8325 -29.0625,-64.895 -64.8975,-64.895 m 0,-6.795 c 39.5875,0 71.6925,32.105 71.6925,71.69 0,39.59 -32.105,71.69497 -71.6925,71.69497 -39.5875,0 -71.6925,-32.10497 -71.6925,-71.69497 0,-39.585 32.105,-71.69 71.6925,-71.69"
         inkscape:connector-curvature="0" />
      <path
         sodipodi:end="4"
         sodipodi:start="0"
         transform="matrix(2.57277,0,0,2.57277,339.2875,638.88969)"
         d="m 53.749043,68.213181 c 0,17.51484 -14.198584,31.713424 -31.713425,31.713424 -17.514841,0 -31.7134249,-14.198584 -31.7134249,-31.713424 0,-9.216264 4.0092557,-17.976647 10.984147,-24.000799 L 22.035618,68.213181 z"
         sodipodi:ry="31.713425"
         sodipodi:rx="31.713425"
         sodipodi:cy="68.213181"
         sodipodi:cx="22.035618"
         id="path3008-1-2"
         style="fill:#58b4f2;fill-opacity:1;stroke:none"
         sodipodi:type="arc"
         class="progArc" />
      <path
         transform="matrix(2.5191742,0,0,2.5191742,423.9234,675.74007)"
         d="m 14.144485,55.036472 c 0,13.937866 -11.298873,25.236739 -25.236739,25.236739 -13.937865,0 -25.236738,-11.298873 -25.236738,-25.236739 0,-13.937865 11.298873,-25.236738 25.236738,-25.236738 13.937866,0 25.236739,11.298873 25.236739,25.236738 z"
         sodipodi:ry="25.236738"
         sodipodi:rx="25.236738"
         sodipodi:cy="55.036472"
         sodipodi:cx="-11.092254"
         id="path3782-0-2"
         style="fill:#ffffff;fill-opacity:1;stroke:none"
         sodipodi:type="arc" />
      <path
         id="path892-8-33"
         style="fill:#424f53;fill-opacity:1;fill-rule:nonzero;stroke:none"
         d="m 409.30758,863.34989 -4.065,0 0,-9.8925 1.49,0 0,8.4075 2.575,0 0,1.485 z m -8.015,-7.625 0.555,3.9 -1.1075,0 0.5525,-3.9 z m -0.7825,5.3525 1.5575,0 0.35,2.2725 1.5675,0 -1.655,-9.8925 -2.0525,0 -1.6825,9.8925 1.555,0 0.36,-2.2725 z m -4.8275,-6.1275 -1.59,0 0,-1.4925 4.6575,0 0,1.4925 -1.5775,0 0,8.4 -1.49,0 0,-8.4 z m -4.17,0.7175 c 0,-0.2375 -0.0824,-0.4375 -0.25,-0.605 -0.165,-0.165 -0.3675,-0.25 -0.605,-0.25 -0.2375,0 -0.44,0.085 -0.6075,0.25 -0.17,0.1676 -0.255,0.3675 -0.255,0.605 l 0,5.4175 c 0,0.235 0.085,0.4375 0.255,0.6025 0.1676,0.165 0.37,0.25 0.6075,0.25 0.2375,0 0.44,-0.085 0.605,-0.25 0.1676,-0.165 0.25,-0.3675 0.25,-0.6025 l 0,-5.4175 z m -0.815,-2.3375 c 0.6575,0 1.2175,0.2325 1.68,0.695 0.4575,0.4625 0.69,1.02 0.69,1.6725 l 0,5.4025 c 0,0.6575 -0.2325,1.2175 -0.695,1.6775 -0.465,0.4625 -1.0225,0.69 -1.675,0.69 -0.6575,0 -1.2175,-0.23 -1.6725,-0.6925 -0.46,-0.465 -0.69,-1.0225 -0.69,-1.675 l 0,-5.4025 c 0,-0.6575 0.2325,-1.2175 0.6975,-1.675 0.4625,-0.4625 1.0175,-0.6925 1.665,-0.6925 m -6.4575,1.62 -1.5875,0 0,-1.4925 4.6575,0 0,1.4925 -1.58,0 0,8.4 -1.49,0 0,-8.4 z"
         inkscape:connector-curvature="0" />
      <text
         sodipodi:linespacing="125%"
         id="text3786-7-5"
         y="816.34399"
         x="395.49667"
         style="font-size:36px;font-style:normal;font-weight:normal;text-align:center;line-height:125%;letter-spacing:0px;word-spacing:0px;text-anchor:middle;fill:#58b4f2;fill-opacity:1;stroke:none;font-family:Sans"
         xml:space="preserve"
         class="current"><tspan
           style="font-size:36px;text-align:center;text-anchor:middle;fill:#58b4f2;fill-opacity:1"
           y="816.34399"
           x="395.49667"
           id="tspan3788-8-3"
           sodipodi:role="line">32s</tspan></text>
      <text
         sodipodi:linespacing="125%"
         id="text3790-4-1"
         y="846.12183"
         x="395.7457"
         style="font-size:80px;font-style:normal;font-weight:normal;line-height:125%;letter-spacing:0px;word-spacing:0px;fill:#424f53;fill-opacity:1;stroke:none;font-family:Sans"
         xml:space="preserve"
         class="total"><tspan
           style="font-size:16px;font-weight:bold;text-align:center;text-anchor:middle;fill:#424f53;fill-opacity:1;-inkscape-font-specification:Sans Bold"
           y="846.12183"
           x="395.7457"
           id="tspan3792-2-4"
           sodipodi:role="line">5900s</tspan></text>
    </g>
    <g
       id="g3083"
       transform="translate(0,30)">
      <path
         inkscape:connector-curvature="0"
         id="path4585"
         style="fill:#58b4f2;fill-opacity:1;fill-rule:evenodd;stroke:none"
         d="m 127.08088,1024.0783 538.42,0 0,21.895 -538.42,0 0,-21.895 z" />
      <path
         inkscape:connector-curvature="0"
         id="path4587"
         style="fill:#d3d2d2;fill-opacity:1;fill-rule:evenodd;stroke:none"
         d="m 126.90588,1024.0783 415.975,0 0,21.895 -415.975,0 0,-21.895 z" />
      <text
         xml:space="preserve"
         style="font-size:20px;font-style:normal;font-weight:bold;text-align:end;line-height:125%;letter-spacing:0px;word-spacing:0px;text-anchor:end;fill:#ffffff;fill-opacity:1;stroke:none;font-family:Sans;-inkscape-font-specification:Sans Bold"
         x="662.73077"
         y="1042.306"
         id="remainPercLabel"
         sodipodi:linespacing="125%"><tspan
           sodipodi:role="line"
           id="tspan3921"
           x="662.73077"
           y="1042.306">15%</tspan></text>
      <text
         xml:space="preserve"
         style="font-size:20px;font-style:normal;font-weight:bold;line-height:125%;letter-spacing:0px;word-spacing:0px;fill:#7b7979;fill-opacity:1;stroke:none;font-family:Sans;-inkscape-font-specification:Sans Bold"
         x="130.3533"
         y="1042.306"
         id="passedPercLabel"
         sodipodi:linespacing="125%"><tspan
           sodipodi:role="line"
           id="tspan3921-7"
           x="130.3533"
           y="1042.306">85%</tspan></text>
    </g>
    <text
       xml:space="preserve"
       style="font-size:40px;font-style:normal;font-weight:normal;text-align:center;line-height:125%;letter-spacing:0px;word-spacing:0px;text-anchor:middle;fill:#8a9294;fill-opacity:1;stroke:none;font-family:Sans"
       x="408.76886"
       y="981.09979"
       id="text3119-7"
       sodipodi:linespacing="125%"><tspan
         sodipodi:role="line"
         x="408.76886"
         y="981.09979"
         id="tspan3123-2"><tspan
           id="tspan3075">This is </tspan><tspan
           id="tspan3077"
           style="fill:#58b4f2;fill-opacity:1">15%</tspan><tspan
           id="tspan3073"
           transform="matrix(1.0869241,0,0,1,-20.379557,0)"> of our</tspan></tspan><tspan
         sodipodi:role="line"
         x="415.13605"
         y="1031.0999"
         id="tspan3071">entire time apart </tspan></text>
  </g>
</svg>
